<svg xmlns="http://www.w3.org/2000/svg" viewBox="0 0 464.85 140.83">
    <defs>
        <style>.cls-1{fill:#000000;}.cls-2{fill:#bf1b1b;}</style>
    </defs>
    <g id="a">
        <path class="cls-1"
                d="M95.52,216.64A48.21,48.21,0,1,0,123,304.47l-8.1-12.73a33.12,33.12,0,1,1,13.79-26.89c0,.42,0,.83,0,1.24v33.8l0,0v13.2h15.08V264.85A48.21,48.21,0,0,0,95.52,216.64Z"
              transform="translate(-47.32 -172.38)"/>
    </g>
    <g id="v">
        <path class="cls-1"
              d="M213.32,216.49,200.09,266l-4.75,17.79-3.07,11a6.39,6.39,0,0,1-6,4.77h0a6.39,6.39,0,0,1-6-4.78l-3.07-11L172.38,266l-13.23-49.52H143.73l21.38,79.91c.08.33.16.66.26,1l0,.16h0a22,22,0,0,0,20.82,15.65v0a22,22,0,0,0,20.82-15.65h0l0-.16c.09-.33.18-.66.26-1l21.37-79.92Z"
              transform="translate(-47.32 -172.38)"/>
    </g>
    <g id="i">
        <rect class="cls-1" x="191.58" y="44.09" width="15.17" height="96.72"/>
        <g id="Layer_8" data-name="Layer 8">
            <path class="cls-2"
                  d="M246.48,172.38a17,17,0,1,0,17,17A17,17,0,0,0,246.48,172.38Zm0,30a13,13,0,1,1,13-13A13,13,0,0,1,246.48,202.39Z"
                  transform="translate(-47.32 -172.38)"/>
        </g>
    </g>
    <g id="a-2" data-name="a">
        <path  class="cls-1"
                d="M312.39,216.78a48.21,48.21,0,1,0,27.43,87.83l-8.09-12.73A33.12,33.12,0,1,1,345.52,265c0,.42,0,.83,0,1.24V300l0,0v13.2H360.6V265A48.21,48.21,0,0,0,312.39,216.78Z"
              transform="translate(-47.32 -172.38)"/>
    </g>
    <g id="n">
        <path  class="cls-1"
                d="M425.82,216.35H398.69c-26,0-28.12,26.63-28.12,26.63v70.09h14.34V252s-1.12-21.13,21.38-21.13h11.93c22.5,0,21.38,21.13,21.38,21.13v61.09h14.34V243S451.82,216.35,425.82,216.35Z"
              transform="translate(-47.32 -172.38)"/>
    </g>
    <g id="t">
        <path  class="cls-1"
                d="M478.24,277.44V216.35H463.9v70.09S466,313.07,492,313.07h1V297.85C477.37,294.17,478.24,277.44,478.24,277.44Z"
              transform="translate(-47.32 -172.38)"/>
    </g>
    <g id="mark">
        <polyline class="cls-2" points="443.23 77.66 431.16 65.59 452.78 43.97 464.85 56.04"/>
    </g>
</svg>